<svg width="20" height="20" viewBox="0 0 20 20" fill="none" xmlns="http://www.w3.org/2000/svg">
<path fill-rule="evenodd" clip-rule="evenodd" d="M4 0C1.79086 0 0 1.79086 0 4V16C0 18.2091 1.79086 20 4 20H16C18.2091 20 20 18.2091 20 16V4C20 1.79086 18.2091 0 16 0H4ZM4 1.90476C2.89543 1.90476 2 2.80019 2 3.90476V16.0952C2 17.1998 2.89543 18.0952 4 18.0952H16C17.1046 18.0952 18 17.1998 18 16.0952V3.90476C18 2.80019 17.1046 1.90476 16 1.90476H4Z" fill="#D9D9D9"/>
<path d="M7.5 10L10.5311 14.5H4.46891L7.5 10Z" fill="#D9D9D9"/>
<path d="M11 7L15.3301 14.5H6.66987L11 7Z" fill="#D9D9D9"/>
<circle cx="7" cy="7" r="1" fill="#D9D9D9"/>
</svg>
