<svg width="20" height="20" viewBox="0 0 20 20" fill="none" xmlns="http://www.w3.org/2000/svg">
<path fill-rule="evenodd" clip-rule="evenodd" d="M4 0C1.79086 0 0 1.79086 0 4V16C0 18.2091 1.79086 20 4 20H16C18.2091 20 20 18.2091 20 16V4C20 1.79086 18.2091 0 16 0H4ZM4 1.90476C2.89543 1.90476 2 2.80019 2 3.90476V16.0952C2 17.1998 2.89543 18.0952 4 18.0952H16C17.1046 18.0952 18 17.1998 18 16.0952V3.90476C18 2.80019 17.1046 1.90476 16 1.90476H4Z" fill="#D9D9D9"/>
<path d="M5.05993 10.1165V9.4027C5.46949 9.4027 5.75358 9.32102 5.9122 9.15767C6.07082 8.99432 6.15012 8.73035 6.15012 8.36577V7.58097C6.15012 7.14299 6.21049 6.79261 6.33123 6.52983C6.45434 6.26468 6.62479 6.06463 6.8426 5.92969C7.06277 5.79474 7.32318 5.70478 7.62385 5.6598C7.92451 5.61482 8.25358 5.59233 8.61106 5.59233V6.72159C8.33171 6.72159 8.11864 6.75829 7.97186 6.83168C7.82744 6.9027 7.7292 7.01397 7.67711 7.16548C7.62503 7.31463 7.59899 7.50402 7.59899 7.73366V8.7706C7.59899 8.95052 7.56584 9.12216 7.49956 9.28551C7.43327 9.4465 7.31016 9.58973 7.13024 9.7152C6.95031 9.8383 6.69345 9.93655 6.35964 10.0099C6.02583 10.081 5.5926 10.1165 5.05993 10.1165ZM8.61106 14.5803C8.25358 14.5803 7.92451 14.5578 7.62385 14.5128C7.32318 14.4678 7.06277 14.3778 6.8426 14.2429C6.62479 14.108 6.45434 13.9079 6.33123 13.6428C6.21049 13.38 6.15012 13.0296 6.15012 12.5916V11.8033C6.15012 11.4387 6.07082 11.1747 5.9122 11.0114C5.75358 10.848 5.46949 10.7663 5.05993 10.7663V10.0526C5.5926 10.0526 6.02583 10.0893 6.35964 10.1626C6.69345 10.2337 6.95031 10.3319 7.13024 10.4574C7.31016 10.5805 7.43327 10.7237 7.49956 10.8871C7.56584 11.0481 7.59899 11.2197 7.59899 11.402V12.4389C7.59899 12.6662 7.62503 12.8544 7.67711 13.0036C7.7292 13.1551 7.82744 13.2663 7.97186 13.3374C8.11864 13.4107 8.33171 13.4474 8.61106 13.4474V14.5803ZM5.05993 10.7663V9.4027H6.33478V10.7663H5.05993ZM14.9392 10.0526V10.7663C14.532 10.7663 14.2479 10.848 14.0869 11.0114C13.9283 11.1747 13.849 11.4387 13.849 11.8033V12.5916C13.849 13.0296 13.7874 13.38 13.6643 13.6428C13.5436 13.9079 13.3731 14.108 13.153 14.2429C12.9352 14.3778 12.6759 14.4678 12.3753 14.5128C12.077 14.5578 11.7479 14.5803 11.3881 14.5803V13.4474C11.6674 13.4474 11.8793 13.4107 12.0237 13.3374C12.1705 13.2663 12.2699 13.1551 12.322 13.0036C12.3741 12.8544 12.4001 12.6662 12.4001 12.4389V11.402C12.4001 11.2197 12.4333 11.0481 12.4996 10.8871C12.5658 10.7237 12.689 10.5805 12.8689 10.4574C13.0488 10.3319 13.3057 10.2337 13.6395 10.1626C13.9733 10.0893 14.4065 10.0526 14.9392 10.0526ZM11.3881 5.59233C11.7479 5.59233 12.077 5.61482 12.3753 5.6598C12.6759 5.70478 12.9352 5.79474 13.153 5.92969C13.3731 6.06463 13.5436 6.26468 13.6643 6.52983C13.7874 6.79261 13.849 7.14299 13.849 7.58097V8.36577C13.849 8.73035 13.9283 8.99432 14.0869 9.15767C14.2479 9.32102 14.532 9.4027 14.9392 9.4027V10.1165C14.4065 10.1165 13.9733 10.081 13.6395 10.0099C13.3057 9.93655 13.0488 9.8383 12.8689 9.7152C12.689 9.58973 12.5658 9.4465 12.4996 9.28551C12.4333 9.12216 12.4001 8.95052 12.4001 8.7706V7.73366C12.4001 7.50402 12.3741 7.31463 12.322 7.16548C12.2699 7.01397 12.1705 6.9027 12.0237 6.83168C11.8793 6.75829 11.6674 6.72159 11.3881 6.72159V5.59233ZM14.9392 9.4027V10.7663H13.6643V9.4027H14.9392Z" fill="white"/>
</svg>
