<svg width="20" height="20" viewBox="0 0 20 20" fill="none" xmlns="http://www.w3.org/2000/svg">
<path fill-rule="evenodd" clip-rule="evenodd" d="M4 0C1.79086 0 0 1.79086 0 4V16C0 18.2091 1.79086 20 4 20H16C18.2091 20 20 18.2091 20 16V4C20 1.79086 18.2091 0 16 0H4ZM4 1.90476C2.89543 1.90476 2 2.80019 2 3.90476V16.0952C2 17.1998 2.89543 18.0952 4 18.0952H16C17.1046 18.0952 18 17.1998 18 16.0952V3.90476C18 2.80019 17.1046 1.90476 16 1.90476H4Z" fill="#D9D9D9"/>
<path fill-rule="evenodd" clip-rule="evenodd" d="M5 6.5C5 5.94772 5.44772 5.5 6 5.5H14C14.5523 5.5 15 5.94772 15 6.5V13.5C15 14.0523 14.5523 14.5 14 14.5H6C5.44772 14.5 5 14.0523 5 13.5V6.5ZM13 10C13 11.6569 11.6569 13 10 13C8.34315 13 7 11.6569 7 10C7 8.34315 8.34315 7 10 7C11.6569 7 13 8.34315 13 10ZM6.5 7.5C6.77614 7.5 7 7.27614 7 7C7 6.72386 6.77614 6.5 6.5 6.5C6.22386 6.5 6 6.72386 6 7C6 7.27614 6.22386 7.5 6.5 7.5Z" fill="#D9D9D9"/>
<circle cx="10" cy="10" r="2" fill="#D9D9D9"/>
<rect x="8" y="5" width="4" height="1" rx="0.5" fill="#D9D9D9"/>
</svg>
