<svg width="20" height="20" viewBox="0 0 20 20" fill="none" xmlns="http://www.w3.org/2000/svg">
<path fill-rule="evenodd" clip-rule="evenodd" d="M4 0C1.79086 0 0 1.79086 0 4V16C0 18.2091 1.79086 20 4 20H16C18.2091 20 20 18.2091 20 16V4C20 1.79086 18.2091 0 16 0H4ZM4 1.90476C2.89543 1.90476 2 2.80019 2 3.90476V16.0952C2 17.1998 2.89543 18.0952 4 18.0952H16C17.1046 18.0952 18 17.1998 18 16.0952V3.90476C18 2.80019 17.1046 1.90476 16 1.90476H4Z" fill="#D9D9D9"/>
<rect x="5" y="5" width="10" height="1.56251" fill="#D9D9D9"/>
<rect x="9.1665" y="5.97656" width="1.66667" height="9.02347" fill="#D9D9D9"/>
<rect x="6.6665" y="14.1797" width="6.66667" height="0.820316" fill="#D9D9D9"/>
<rect x="5" y="5.97656" width="0.833333" height="1.64063" fill="#D9D9D9"/>
<rect x="14.1665" y="5.97656" width="0.833333" height="1.64063" fill="#D9D9D9"/>
</svg>
