<svg width="50" height="50" viewBox="0 0 50 50" fill="none" xmlns="http://www.w3.org/2000/svg">
<path fill-rule="evenodd" clip-rule="evenodd" d="M25 0C11.1929 0 0 11.1929 0 25C0 38.8071 11.1929 50 25 50C38.8071 50 50 38.8071 50 25C50 11.1929 38.8071 0 25 0ZM25 4.76074C13.9543 4.76074 5 13.715 5 24.7607V25.2369C5 36.2826 13.9543 45.2369 25 45.2369C36.0457 45.2369 45 36.2826 45 25.2369V24.7607C45 13.715 36.0457 4.76074 25 4.76074Z" fill="#D9D9D9"/>
<path d="M10.656 25.4208C10.3493 25.2241 10.3493 24.7759 10.656 24.5792L26.105 14.6686C26.4378 14.4551 26.875 14.6941 26.875 15.0895L26.875 34.9105C26.875 35.3059 26.4378 35.5449 26.105 35.3314L10.656 25.4208Z" fill="#D9D9D9"/>
<rect x="25" y="20" width="12.5" height="10" fill="#D9D9D9"/>
</svg>
