<svg width="20" height="20" viewBox="0 0 20 20" fill="none" xmlns="http://www.w3.org/2000/svg">
<path fill-rule="evenodd" clip-rule="evenodd" d="M4 0C1.79086 0 0 1.79086 0 4V16C0 18.2091 1.79086 20 4 20H16C18.2091 20 20 18.2091 20 16V4C20 1.79086 18.2091 0 16 0H4ZM4 1.90476C2.89543 1.90476 2 2.80019 2 3.90476V16.0952C2 17.1998 2.89543 18.0952 4 18.0952H16C17.1046 18.0952 18 17.1998 18 16.0952V3.90476C18 2.80019 17.1046 1.90476 16 1.90476H4Z" fill="#FF4848"/>
<path d="M15.5 6H13.5V4.75C13.5 4.19844 13.0516 3.75 12.5 3.75H7.5C6.94844 3.75 6.5 4.19844 6.5 4.75V6H4.5C4.22344 6 4 6.22344 4 6.5V7C4 7.06875 4.05625 7.125 4.125 7.125H5.06875L5.45469 15.2969C5.47969 15.8297 5.92031 16.25 6.45312 16.25H13.5469C14.0813 16.25 14.5203 15.8313 14.5453 15.2969L14.9312 7.125H15.875C15.9438 7.125 16 7.06875 16 7V6.5C16 6.22344 15.7766 6 15.5 6ZM12.375 6H7.625V4.875H12.375V6Z" fill="#FF4848"/>
</svg>
