<svg width="201" height="200" viewBox="0 0 201 200" fill="none" xmlns="http://www.w3.org/2000/svg">
<path d="M105.455 171H110.398L102.866 192.818H96.9213L89.4 171H94.3431L99.8083 187.832H99.9788L105.455 171ZM105.764 179.576H94.0875V175.975H105.764V179.576Z" fill="#F5F869"/>
<path d="M83.6445 169.461L76.1822 189.964L67.9732 186.976C66.4649 186.427 65.2883 185.746 64.4432 184.932C63.5982 184.118 63.0666 183.221 62.8485 182.242C62.6279 181.27 62.7046 180.27 63.0787 179.243C63.3702 178.442 63.7867 177.796 64.3281 177.305C64.867 176.821 65.4873 176.488 66.1888 176.304C66.8812 176.126 67.6136 176.086 68.386 176.186L68.4589 175.986C67.6902 175.668 67.0395 175.182 66.507 174.527C65.9677 173.87 65.6181 173.096 65.4582 172.207C65.2958 171.324 65.3981 170.378 65.7649 169.371C66.1608 168.283 66.7845 167.41 67.6361 166.753C68.4785 166.099 69.5135 165.716 70.741 165.604C71.9686 165.491 73.3499 165.714 74.8849 166.273L83.6445 169.461ZM78.0199 171.428L74.486 170.141C73.278 169.702 72.3132 169.611 71.5917 169.87C70.8677 170.136 70.3648 170.656 70.0831 171.43C69.8766 171.997 69.8312 172.547 69.947 173.081C70.0627 173.614 70.3292 174.097 70.7466 174.528C71.1573 174.957 71.7096 175.298 72.4037 175.551L76.0377 176.874L78.0199 171.428ZM74.9701 179.807L71.7566 178.637C71.1626 178.421 70.5977 178.332 70.0619 178.372C69.517 178.415 69.0406 178.582 68.6328 178.872C68.2183 179.159 67.9126 179.573 67.7159 180.114C67.4462 180.855 67.4924 181.548 67.8545 182.194C68.2099 182.837 68.8681 183.334 69.8292 183.683L73.1227 184.882L74.9701 179.807Z" fill="#F5F869"/>
<path d="M39.9174 156.181C41.4468 154.359 43.0934 153.098 44.8572 152.399C46.6155 151.696 48.3708 151.505 50.1229 151.825C51.8651 152.147 53.4734 152.926 54.9478 154.163C56.4331 155.41 57.483 156.865 58.0975 158.531C58.7121 160.196 58.8257 161.955 58.4384 163.809C58.0511 165.663 57.095 167.499 55.5702 169.316C54.0409 171.138 52.397 172.401 50.6386 173.105C48.8803 173.808 47.13 173.999 45.3879 173.677C43.6412 173.361 42.0252 172.58 40.5399 171.334C39.0654 170.097 38.021 168.646 37.4064 166.98C36.7819 165.316 36.6633 163.557 37.0506 161.703C37.4325 159.845 38.3881 158.004 39.9174 156.181ZM43.5001 159.188C42.5095 160.368 41.8508 161.512 41.5243 162.62C41.1922 163.723 41.1687 164.75 41.4538 165.704C41.7388 166.657 42.3084 167.492 43.1626 168.208C44.0168 168.925 44.9379 169.341 45.926 169.456C46.9141 169.571 47.925 169.372 48.9589 168.858C49.9873 168.34 50.9969 167.49 51.9875 166.309C52.9782 165.129 53.6395 163.987 53.9716 162.884C54.2981 161.777 54.3189 160.747 54.0339 159.794C53.7488 158.841 53.1792 158.006 52.3251 157.289C51.4709 156.572 50.5497 156.156 49.5617 156.041C48.5736 155.926 47.5653 156.127 46.5369 156.646C45.503 157.16 44.4908 158.007 43.5001 159.188Z" fill="#F5F869"/>
<path d="M17.7928 142.572L15.4863 138.577L27.757 131.493C29.1348 130.697 30.5303 130.33 31.9436 130.392C33.3534 130.447 34.6865 130.895 35.9429 131.736C37.1932 132.581 38.2693 133.784 39.1713 135.347C40.0769 136.915 40.5828 138.452 40.689 139.957C40.7891 141.466 40.5107 142.844 39.8538 144.093C39.1969 145.341 38.1795 146.363 36.8018 147.159L24.531 154.243L22.2246 150.248L34.1539 143.361C34.8736 142.945 35.4227 142.419 35.8013 141.782C36.1764 141.139 36.3569 140.436 36.343 139.674C36.329 138.911 36.1001 138.145 35.6562 137.376C35.2087 136.601 34.66 136.02 34.0099 135.633C33.3562 135.239 32.659 135.047 31.9182 135.057C31.1738 135.06 30.4418 135.269 29.7221 135.685L17.7928 142.572Z" fill="#F5F869"/>
<path d="M14.1964 123.783L10.4509 124.443L7.33928 106.797L11.0848 106.136L12.2447 112.714L29.9859 109.586L30.7777 114.077L13.0365 117.205L14.1964 123.783Z" fill="#F5F869"/>
<path d="M14.0934 63.8354L16.9378 58.9086L32.6373 61.0346L32.7651 60.8132L23.0742 48.2801L25.9187 43.3534L44.8138 54.2625L42.5766 58.1374L30.2781 51.0369L30.1876 51.1938L39.5706 63.1309L38.0472 65.7695L22.9717 63.5855L22.8812 63.7424L35.2257 70.8695L32.9885 74.7445L14.0934 63.8354Z" fill="#F5F869"/>
<path d="M49.5529 49.9742L35.5284 33.2605L46.7906 23.8105L49.2353 26.7239L41.5068 33.2089L44.8486 37.1914L51.9976 31.1927L54.4423 34.1062L47.2933 40.1049L50.6419 44.0956L58.403 37.5833L60.8477 40.4968L49.5529 49.9742Z" fill="#F5F869"/>
<path d="M95.3272 29H90.384L97.9159 7.18182L103.861 7.18182L111.382 29L106.439 29L100.973 12.1676H100.803L95.3272 29ZM95.0182 20.424L106.694 20.424V24.0249L95.0182 24.0249V20.424Z" fill="#F5F869"/>
<path d="M117.137 30.5386L124.6 10.0362L132.809 13.024C134.317 13.573 135.494 14.2545 136.339 15.0684C137.184 15.8824 137.715 16.7788 137.933 17.7576C138.154 18.7297 138.077 19.7297 137.703 20.7575C137.412 21.5583 136.995 22.2041 136.454 22.6949C135.915 23.1789 135.295 23.5125 134.593 23.6955C133.901 23.8743 133.168 23.9138 132.396 23.8141L132.323 24.0143C133.092 24.3319 133.742 24.8181 134.275 25.473C134.814 26.1303 135.164 26.9038 135.324 27.7934C135.486 28.6763 135.384 29.6216 135.017 30.6294C134.621 31.7173 133.997 32.59 133.146 33.2475C132.303 33.9007 131.268 34.2836 130.041 34.3961C128.813 34.5086 127.432 34.2855 125.897 33.7268L117.137 30.5386ZM122.762 28.5724L126.296 29.8586C127.504 30.2983 128.469 30.3887 129.19 30.1298C129.914 29.8643 130.417 29.3444 130.699 28.5702C130.905 28.0029 130.951 27.4526 130.835 26.9192C130.719 26.3858 130.453 25.9033 130.035 25.4718C129.625 25.0426 129.072 24.7018 128.378 24.4491L124.744 23.1265L122.762 28.5724ZM125.812 20.1933L129.025 21.3629C129.619 21.5791 130.184 21.6675 130.72 21.6283C131.265 21.5847 131.741 21.418 132.149 21.1281C132.564 20.8406 132.869 20.4265 133.066 19.886C133.336 19.1452 133.289 18.4519 132.927 17.8062C132.572 17.1629 131.914 16.6663 130.953 16.3165L127.659 15.1177L125.812 20.1933Z" fill="#F5F869"/>
<path d="M160.864 43.8185C159.335 45.6412 157.688 46.9019 155.925 47.6006C154.166 48.304 152.411 48.4953 150.659 48.1747C148.917 47.8533 147.308 47.074 145.834 45.8368C144.349 44.5905 143.299 43.1347 142.684 41.4694C142.07 39.8041 141.956 38.0445 142.343 36.1907C142.731 34.337 143.687 32.5015 145.212 30.6843C146.741 28.8617 148.385 27.5987 150.143 26.8954C151.902 26.192 153.652 26.0011 155.394 26.3226C157.141 26.6386 158.757 27.4198 160.242 28.6661C161.716 29.9032 162.761 31.3545 163.375 33.0198C164 34.6842 164.119 36.4433 163.731 38.2971C163.349 40.1554 162.394 41.9959 160.864 43.8185ZM157.282 40.8123C158.272 39.6317 158.931 38.4877 159.258 37.3803C159.59 36.2775 159.613 35.2495 159.328 34.2964C159.043 33.3434 158.473 32.5085 157.619 31.7917C156.765 31.075 155.844 30.659 154.856 30.5438C153.868 30.4286 152.857 30.628 151.823 31.1419C150.794 31.6604 149.785 32.5099 148.794 33.6905C147.804 34.8711 147.142 36.0129 146.81 37.1157C146.484 38.2231 146.463 39.2533 146.748 40.2064C147.033 41.1595 147.603 41.9944 148.457 42.7111C149.311 43.4279 150.232 43.8438 151.22 43.959C152.208 44.0742 153.217 43.8726 154.245 43.3541C155.279 42.8402 156.291 41.9929 157.282 40.8123Z" fill="#F5F869"/>
<path d="M182.989 57.4278L185.296 61.4227L173.025 68.5073C171.647 69.3027 170.251 69.6697 168.838 69.6081C167.428 69.5527 166.095 69.1046 164.839 68.2636C163.589 67.419 162.512 66.2156 161.61 64.6533C160.705 63.0849 160.199 61.5481 160.093 60.0431C159.993 58.5345 160.271 57.1559 160.928 55.9073C161.585 54.6588 162.602 53.6368 163.98 52.8413L176.251 45.7568L178.557 49.7517L166.628 56.6391C165.908 57.0546 165.359 57.5808 164.98 58.2176C164.605 58.8606 164.425 59.5635 164.439 60.3263C164.453 61.0892 164.682 61.855 165.126 62.6239C165.573 63.3988 166.122 63.98 166.772 64.3674C167.426 64.7609 168.123 64.9529 168.864 64.9435C169.608 64.9401 170.34 64.7307 171.06 64.3153L182.989 57.4278Z" fill="#F5F869"/>
<path d="M186.585 76.217L190.331 75.5565L193.443 93.2033L189.697 93.8638L188.537 87.2856L170.796 90.4138L170.004 85.9234L187.745 82.7952L186.585 76.217Z" fill="#F5F869"/>
<path d="M186.688 136.165L183.844 141.091L168.145 138.965L168.017 139.187L177.708 151.72L174.863 156.647L155.968 145.738L158.205 141.863L170.504 148.963L170.594 148.806L161.211 136.869L162.735 134.23L177.81 136.414L177.901 136.258L165.556 129.131L167.793 125.256L186.688 136.165Z" fill="#F5F869"/>
<path d="M151.229 150.026L165.253 166.739L153.991 176.19L151.547 173.276L159.275 166.791L155.933 162.809L148.784 168.807L146.34 165.894L153.489 159.895L150.14 155.904L142.379 162.417L139.934 159.503L151.229 150.026Z" fill="#F5F869"/>
</svg>
